<?xml version="1.0" encoding="UTF-8" standalone="no"?>
<!DOCTYPE svg PUBLIC "-//W3C//DTD SVG 1.1//EN"
 "http://www.w3.org/Graphics/SVG/1.1/DTD/svg11.dtd">
<!-- Generated by graphviz version 2.43.0 (0)
 -->
<!-- Title: %3 Pages: 1 -->
<svg width="326pt" height="330pt"
 viewBox="0.00 0.00 326.00 330.00" xmlns="http://www.w3.org/2000/svg" xmlns:xlink="http://www.w3.org/1999/xlink">
<g id="graph0" class="graph" transform="scale(1 1) rotate(0) translate(4 326)">
<title>%3</title>
<polygon fill="white" stroke="transparent" points="-4,4 -4,-326 322,-326 322,4 -4,4"/>
<!-- 0 -->
<g id="node1" class="node">
<title>0</title>
<polygon fill="aqua" stroke="black" points="318,-322 264,-322 264,-286 318,-286 318,-322"/>
<text text-anchor="middle" x="291" y="-300.3" font-family="Times,serif" font-size="14.00">0</text>
</g>
<!-- H -->
<g id="node2" class="node">
<title>H</title>
<polygon fill="aqua" stroke="black" points="102.67,-98.65 63.37,-98.65 51.22,-136.03 39.08,-98.65 -0.22,-98.65 31.57,-75.55 19.43,-38.17 51.22,-61.27 83.02,-38.17 70.87,-75.55 102.67,-98.65"/>
<text text-anchor="middle" x="51.22" y="-83.4" font-family="Times,serif" font-size="14.00">H</text>
</g>
<!-- B -->
<g id="node3" class="node">
<title>B</title>
<polygon fill="aqua" stroke="black" points="177.83,-106.07 138.53,-106.07 126.38,-143.45 114.24,-106.07 74.94,-106.07 106.73,-82.96 94.59,-45.58 126.38,-68.69 158.18,-45.58 146.03,-82.96 177.83,-106.07"/>
<text text-anchor="middle" x="126.38" y="-90.81" font-family="Times,serif" font-size="14.00">B</text>
</g>
<!-- H&#45;&#45;B -->
<g id="edge1" class="edge">
<title>H&#45;&#45;B</title>
<path fill="none" stroke="red" d="M92.32,-91.15C93.28,-91.25 94.24,-91.34 95.19,-91.44"/>
<text text-anchor="middle" x="87.25" y="-75.3" font-family="Times,serif" font-size="20.00">2</text>
</g>
<!-- G -->
<g id="node8" class="node">
<title>G</title>
<polygon fill="aqua" stroke="black" points="129.26,-167.32 89.96,-167.32 77.82,-204.7 65.67,-167.32 26.37,-167.32 58.17,-144.22 46.02,-106.84 77.82,-129.94 109.61,-106.84 97.47,-144.22 129.26,-167.32"/>
<text text-anchor="middle" x="77.82" y="-152.07" font-family="Times,serif" font-size="14.00">G</text>
</g>
<!-- H&#45;&#45;G -->
<g id="edge7" class="edge">
<title>H&#45;&#45;G</title>
<path fill="none" stroke="red" d="M59.93,-109.58C61.2,-112.87 62.54,-116.32 63.88,-119.79"/>
<text text-anchor="middle" x="48.91" y="-98.69" font-family="Times,serif" font-size="20.00">14</text>
</g>
<!-- A -->
<g id="node4" class="node">
<title>A</title>
<polygon fill="aqua" stroke="black" points="237.81,-60.27 198.51,-60.27 186.37,-97.65 174.22,-60.27 134.92,-60.27 166.72,-37.16 154.57,0.22 186.37,-22.89 218.16,0.22 206.02,-37.16 237.81,-60.27"/>
<text text-anchor="middle" x="186.37" y="-45.01" font-family="Times,serif" font-size="14.00">A</text>
</g>
<!-- B&#45;&#45;A -->
<g id="edge2" class="edge">
<title>B&#45;&#45;A</title>
<path fill="none" stroke="red" d="M147.7,-78.24C155.38,-72.38 163.88,-65.88 170.96,-60.48"/>
<text text-anchor="middle" x="152.83" y="-53.36" font-family="Times,serif" font-size="20.00">1</text>
</g>
<!-- C -->
<g id="node5" class="node">
<title>C</title>
<polygon fill="aqua" stroke="black" points="251.35,-132.72 212.05,-132.72 199.9,-170.1 187.76,-132.72 148.46,-132.72 180.25,-109.62 168.11,-72.24 199.9,-95.34 231.7,-72.24 219.55,-109.62 251.35,-132.72"/>
<text text-anchor="middle" x="199.9" y="-117.47" font-family="Times,serif" font-size="14.00">C</text>
</g>
<!-- B&#45;&#45;C -->
<g id="edge14" class="edge">
<title>B&#45;&#45;C</title>
<path fill="none" stroke="red" d="M158.42,-106.13C164.3,-108.26 170.34,-110.45 175.94,-112.48"/>
<text text-anchor="middle" x="160.68" y="-115.3" font-family="Times,serif" font-size="20.00">2</text>
</g>
<!-- B&#45;&#45;G -->
<g id="edge8" class="edge">
<title>B&#45;&#45;G</title>
<path fill="none" stroke="red" d="M115.12,-108.72C111.98,-112.68 108.43,-117.16 104.8,-121.74"/>
<text text-anchor="middle" x="116.46" y="-99.23" font-family="Times,serif" font-size="20.00">4</text>
</g>
<!-- A&#45;&#45;C -->
<g id="edge3" class="edge">
<title>A&#45;&#45;C</title>
<path fill="none" stroke="red" d="M192.19,-79.86C192.87,-83.54 193.58,-87.3 194.26,-90.97"/>
<text text-anchor="middle" x="186.72" y="-69.41" font-family="Times,serif" font-size="20.00">4</text>
</g>
<!-- E -->
<g id="node6" class="node">
<title>E</title>
<polygon fill="aqua" stroke="black" points="252.15,-214.34 212.85,-214.34 200.7,-251.72 188.56,-214.34 149.26,-214.34 181.05,-191.24 168.91,-153.86 200.7,-176.96 232.5,-153.86 220.35,-191.24 252.15,-214.34"/>
<text text-anchor="middle" x="200.7" y="-199.09" font-family="Times,serif" font-size="14.00">E</text>
</g>
<!-- C&#45;&#45;E -->
<g id="edge4" class="edge">
<title>C&#45;&#45;E</title>
<path fill="none" stroke="red" d="M200.37,-168.65C200.4,-171.45 200.42,-174.22 200.45,-176.88"/>
<text text-anchor="middle" x="206.91" y="-178.76" font-family="Times,serif" font-size="20.00">3</text>
</g>
<!-- F -->
<g id="node7" class="node">
<title>F</title>
<polygon fill="aqua" stroke="black" points="171.27,-237.2 131.97,-237.2 119.83,-274.58 107.68,-237.2 68.38,-237.2 100.18,-214.1 88.03,-176.72 119.83,-199.82 151.62,-176.72 139.48,-214.1 171.27,-237.2"/>
<text text-anchor="middle" x="119.83" y="-221.95" font-family="Times,serif" font-size="14.00">F</text>
</g>
<!-- E&#45;&#45;F -->
<g id="edge5" class="edge">
<title>E&#45;&#45;F</title>
<path fill="none" stroke="red" d="M159.79,-214.35C154.93,-215.73 150.08,-217.1 145.52,-218.38"/>
<text text-anchor="middle" x="146.16" y="-222.37" font-family="Times,serif" font-size="20.00">1</text>
</g>
<!-- F&#45;&#45;G -->
<g id="edge6" class="edge">
<title>F&#45;&#45;G</title>
<path fill="none" stroke="red" d="M92.27,-179.82C90.85,-177.45 89.47,-175.16 88.17,-172.99"/>
<text text-anchor="middle" x="83.72" y="-160.4" font-family="Times,serif" font-size="20.00">6</text>
</g>
<!-- D -->
<g id="node9" class="node">
<title>D</title>
<polygon fill="aqua" stroke="black" points="197.9,-176.74 158.6,-176.74 146.45,-214.12 134.31,-176.74 95.01,-176.74 126.8,-153.64 114.66,-116.26 146.45,-139.36 178.25,-116.26 166.1,-153.64 197.9,-176.74"/>
<text text-anchor="middle" x="146.45" y="-161.49" font-family="Times,serif" font-size="14.00">D</text>
</g>
<!-- D&#45;&#45;B -->
<g id="edge13" class="edge">
<title>D&#45;&#45;B</title>
<path fill="none" stroke="red" d="M137.24,-132.75C136.08,-128.68 134.92,-124.57 133.79,-120.62"/>
<text text-anchor="middle" x="142.02" y="-132.68" font-family="Times,serif" font-size="20.00">9</text>
</g>
<!-- D&#45;&#45;C -->
<g id="edge12" class="edge">
<title>D&#45;&#45;C</title>
<path fill="none" stroke="red" d="M168.19,-147.28C174.09,-142.43 180.32,-137.29 185.69,-132.88"/>
<text text-anchor="middle" x="170.44" y="-146.08" font-family="Times,serif" font-size="20.00">1</text>
</g>
<!-- D&#45;&#45;E -->
<g id="edge11" class="edge">
<title>D&#45;&#45;E</title>
<path fill="none" stroke="red" d="M163.32,-176.88C168.67,-180.59 174.64,-184.73 180.22,-188.59"/>
<text text-anchor="middle" x="178.27" y="-188.74" font-family="Times,serif" font-size="20.00">1</text>
</g>
<!-- D&#45;&#45;F -->
<g id="edge10" class="edge">
<title>D&#45;&#45;F</title>
<path fill="none" stroke="red" d="M137.29,-185.99C137.05,-186.54 136.81,-187.09 136.56,-187.65"/>
<text text-anchor="middle" x="136.92" y="-170.82" font-family="Times,serif" font-size="20.00">3</text>
</g>
<!-- D&#45;&#45;G -->
<g id="edge9" class="edge">
<title>D&#45;&#45;G</title>
<path fill="none" stroke="red" d="M116.55,-161.08C116.4,-161.06 116.26,-161.04 116.11,-161.02"/>
<text text-anchor="middle" x="109.83" y="-145.05" font-family="Times,serif" font-size="20.00">1</text>
</g>
</g>
</svg>
