<?xml version="1.0" encoding="UTF-8" standalone="no"?>
<!DOCTYPE svg PUBLIC "-//W3C//DTD SVG 1.1//EN"
 "http://www.w3.org/Graphics/SVG/1.1/DTD/svg11.dtd">
<!-- Generated by graphviz version 2.43.0 (0)
 -->
<!-- Title: %3 Pages: 1 -->
<svg width="289pt" height="252pt"
 viewBox="0.00 0.00 288.94 252.15" xmlns="http://www.w3.org/2000/svg" xmlns:xlink="http://www.w3.org/1999/xlink">
<g id="graph0" class="graph" transform="scale(1 1) rotate(0) translate(4 248.15)">
<title>%3</title>
<polygon fill="white" stroke="transparent" points="-4,4 -4,-248.15 284.94,-248.15 284.94,4 -4,4"/>
<!-- A -->
<g id="node1" class="node">
<title>A</title>
<ellipse fill="aqua" stroke="black" cx="253.94" cy="-122.08" rx="27" ry="21.43"/>
<text text-anchor="middle" x="253.94" y="-117.08" font-family="Times,serif" font-size="20.00" fill="red">A</text>
</g>
<!-- C -->
<g id="node3" class="node">
<title>C</title>
<ellipse fill="aqua" stroke="black" cx="178.29" cy="-96.86" rx="27" ry="21.43"/>
<text text-anchor="middle" x="178.29" y="-91.86" font-family="Times,serif" font-size="20.00" fill="red">C</text>
</g>
<!-- A&#45;&#45;C -->
<g id="edge3" class="edge">
<title>A&#45;&#45;C</title>
<path fill="none" stroke="red" d="M228.75,-113.68C220.59,-110.96 211.53,-107.94 203.37,-105.22"/>
<text text-anchor="middle" x="216.06" y="-90.25" font-family="Times,serif" font-size="24.00" fill="white">4</text>
</g>
<!-- B -->
<g id="node2" class="node">
<title>B</title>
<ellipse fill="aqua" stroke="black" cx="178.29" cy="-197.72" rx="27" ry="21.43"/>
<text text-anchor="middle" x="178.29" y="-192.72" font-family="Times,serif" font-size="20.00" fill="red">B</text>
</g>
<!-- B&#45;&#45;A -->
<g id="edge2" class="edge">
<title>B&#45;&#45;A</title>
<path fill="none" stroke="red" d="M195.08,-180.93C207.62,-168.4 224.68,-151.34 237.2,-138.82"/>
<text text-anchor="middle" x="208.15" y="-140.67" font-family="Times,serif" font-size="24.00" fill="white">1</text>
</g>
<!-- B&#45;&#45;C -->
<g id="edge14" class="edge">
<title>B&#45;&#45;C</title>
<path fill="none" stroke="red" d="M178.29,-176.33C178.29,-159.22 178.29,-135.33 178.29,-118.22"/>
<text text-anchor="middle" x="170.29" y="-154.07" font-family="Times,serif" font-size="24.00" fill="white">2</text>
</g>
<!-- G -->
<g id="node7" class="node">
<title>G</title>
<ellipse fill="aqua" stroke="black" cx="52.22" cy="-147.29" rx="27" ry="21.43"/>
<text text-anchor="middle" x="52.22" y="-142.29" font-family="Times,serif" font-size="20.00" fill="red">G</text>
</g>
<!-- B&#45;&#45;G -->
<g id="edge8" class="edge">
<title>B&#45;&#45;G</title>
<path fill="none" stroke="red" d="M153.99,-188C131.66,-179.07 98.75,-165.91 76.45,-156.99"/>
<text text-anchor="middle" x="107.21" y="-179.29" font-family="Times,serif" font-size="24.00" fill="white">4</text>
</g>
<!-- E -->
<g id="node5" class="node">
<title>E</title>
<ellipse fill="aqua" stroke="black" cx="127.86" cy="-21.21" rx="27" ry="21.43"/>
<text text-anchor="middle" x="127.86" y="-16.21" font-family="Times,serif" font-size="20.00" fill="red">E</text>
</g>
<!-- C&#45;&#45;E -->
<g id="edge4" class="edge">
<title>C&#45;&#45;E</title>
<path fill="none" stroke="red" d="M165.57,-77.77C157.86,-66.22 148.08,-51.54 140.41,-40.03"/>
<text text-anchor="middle" x="144.98" y="-65.68" font-family="Times,serif" font-size="24.00" fill="white">3</text>
</g>
<!-- D -->
<g id="node4" class="node">
<title>D</title>
<ellipse fill="aqua" stroke="black" cx="102.65" cy="-96.86" rx="27" ry="21.43"/>
<text text-anchor="middle" x="102.65" y="-91.86" font-family="Times,serif" font-size="20.00" fill="red">D</text>
</g>
<!-- D&#45;&#45;B -->
<g id="edge13" class="edge">
<title>D&#45;&#45;B</title>
<path fill="none" stroke="red" d="M116.52,-115.36C130.17,-133.56 150.89,-161.18 164.51,-179.34"/>
<text text-anchor="middle" x="132.53" y="-154.17" font-family="Times,serif" font-size="24.00" fill="white">9</text>
</g>
<!-- D&#45;&#45;C -->
<g id="edge12" class="edge">
<title>D&#45;&#45;C</title>
<path fill="none" stroke="red" d="M129.96,-96.86C136.9,-96.86 144.35,-96.86 151.28,-96.86"/>
<text text-anchor="middle" x="132.62" y="-103.66" font-family="Times,serif" font-size="24.00" fill="white">1</text>
</g>
<!-- D&#45;&#45;E -->
<g id="edge11" class="edge">
<title>D&#45;&#45;E</title>
<path fill="none" stroke="red" d="M109.54,-76.19C113.1,-65.52 117.42,-52.53 120.98,-41.86"/>
<text text-anchor="middle" x="107.26" y="-39.82" font-family="Times,serif" font-size="24.00" fill="white">1</text>
</g>
<!-- F -->
<g id="node6" class="node">
<title>F</title>
<ellipse fill="aqua" stroke="black" cx="27" cy="-46.43" rx="27" ry="21.43"/>
<text text-anchor="middle" x="27" y="-41.43" font-family="Times,serif" font-size="20.00" fill="red">F</text>
</g>
<!-- D&#45;&#45;F -->
<g id="edge10" class="edge">
<title>D&#45;&#45;F</title>
<path fill="none" stroke="red" d="M81.98,-83.08C71.3,-75.96 58.32,-67.31 47.65,-60.19"/>
<text text-anchor="middle" x="56.81" y="-78.44" font-family="Times,serif" font-size="24.00" fill="white">3</text>
</g>
<!-- D&#45;&#45;G -->
<g id="edge9" class="edge">
<title>D&#45;&#45;G</title>
<path fill="none" stroke="red" d="M85.85,-113.65C80.47,-119.04 74.5,-125.01 69.11,-130.4"/>
<text text-anchor="middle" x="85.48" y="-128.82" font-family="Times,serif" font-size="24.00" fill="white">1</text>
</g>
<!-- E&#45;&#45;F -->
<g id="edge5" class="edge">
<title>E&#45;&#45;F</title>
<path fill="none" stroke="red" d="M101.89,-27.71C86.83,-31.47 67.93,-36.2 52.89,-39.96"/>
<text text-anchor="middle" x="69.38" y="-40.63" font-family="Times,serif" font-size="24.00" fill="white">1</text>
</g>
<!-- F&#45;&#45;G -->
<g id="edge6" class="edge">
<title>F&#45;&#45;G</title>
<path fill="none" stroke="red" d="M32.22,-67.33C36.55,-84.64 42.67,-109.12 47,-126.42"/>
<text text-anchor="middle" x="31.61" y="-103.68" font-family="Times,serif" font-size="24.00" fill="white">6</text>
</g>
<!-- H -->
<g id="node8" class="node">
<title>H</title>
<ellipse fill="aqua" stroke="black" cx="102.65" cy="-222.94" rx="27" ry="21.43"/>
<text text-anchor="middle" x="102.65" y="-217.94" font-family="Times,serif" font-size="20.00" fill="red">H</text>
</g>
<!-- H&#45;&#45;B -->
<g id="edge1" class="edge">
<title>H&#45;&#45;B</title>
<path fill="none" stroke="red" d="M127.84,-214.54C136,-211.82 145.06,-208.8 153.21,-206.08"/>
<text text-anchor="middle" x="140.53" y="-191.11" font-family="Times,serif" font-size="24.00" fill="white">2</text>
</g>
<!-- H&#45;&#45;G -->
<g id="edge7" class="edge">
<title>H&#45;&#45;G</title>
<path fill="none" stroke="red" d="M89.92,-203.85C82.22,-192.29 72.43,-177.62 64.76,-166.11"/>
<text text-anchor="middle" x="61.83" y="-191.76" font-family="Times,serif" font-size="24.00" fill="white">14</text>
</g>
</g>
</svg>
